<?xml version="1.0" standalone="no"?>
<!DOCTYPE svg PUBLIC "-//W3C//DTD SVG 20010904//EN"
 "http://www.w3.org/TR/2001/REC-SVG-20010904/DTD/svg10.dtd">
<svg version="1.0" xmlns="http://www.w3.org/2000/svg"
 width="2500.000000pt" height="1800.000000pt" viewBox="0 0 2500.000000 1800.000000"
 preserveAspectRatio="xMidYMid meet">
<metadata>
Created by potrace 1.16, written by Peter Selinger 2001-2019
</metadata>
<g transform="translate(0.000000,1800.000000) scale(0.100000,-0.100000)"
fill="#000000" stroke="none">
<path d="M0 9000 l0 -9000 12500 0 12500 0 0 9000 0 9000 -12500 0 -12500 0 0
-9000z m12920 3805 c1111 -129 2072 -699 2718 -1612 386 -547 635 -1245 678
-1905 l7 -103 376 -1 c800 -3 1247 -61 1647 -215 111 -43 154 -78 154 -126 0
-36 -27 -63 -61 -63 -21 0 -47 16 -95 60 -115 104 -247 159 -494 204 -321 59
-648 85 -1132 93 l-388 6 0 -130 c0 -419 -73 -854 -210 -1255 -466 -1368
-1691 -2371 -3115 -2552 -440 -56 -833 -43 -1255 40 -1530 303 -2737 1528
-3014 3061 -29 157 -56 382 -56 461 l0 53 -47 -6 c-89 -10 -386 -25 -738 -36
-388 -13 -820 -1 -1000 26 -188 29 -334 80 -375 132 -39 49 -15 113 41 113 19
0 44 -14 79 -45 109 -97 210 -124 580 -157 167 -15 1118 -18 1321 -5 l126 9 6
216 c7 238 25 414 63 625 281 1554 1517 2790 3071 3071 127 23 340 50 473 60
112 8 509 -4 640 -19z"/>
<path d="M12210 12744 c-485 -43 -911 -159 -1326 -359 -394 -190 -697 -402
-1007 -704 -464 -452 -813 -1036 -986 -1648 -91 -323 -130 -580 -138 -925 -5
-217 -4 -248 9 -248 29 0 424 41 973 100 627 68 923 95 1180 110 291 16 299
17 321 24 26 9 54 -16 54 -49 0 -12 -18 -62 -39 -111 -22 -49 -38 -90 -36 -93
3 -2 55 45 117 105 137 132 266 231 372 284 88 45 113 48 147 22 43 -35 25
-120 -79 -377 -54 -132 -92 -266 -92 -322 l0 -44 33 22 c17 13 100 90 184 171
157 153 181 168 217 133 16 -17 22 -41 31 -145 11 -121 36 -167 110 -201 126
-58 314 16 532 210 75 67 118 115 160 179 106 163 269 302 353 302 29 0 104
-33 114 -49 4 -6 11 -11 16 -11 17 0 183 237 304 433 136 221 213 332 313 456
87 108 114 128 150 115 45 -15 38 -42 -36 -144 -312 -425 -473 -685 -671
-1079 -205 -410 -379 -847 -368 -923 2 -18 19 2 73 87 136 214 257 365 389
484 336 303 1195 532 2271 605 127 9 267 19 313 22 l84 6 -7 76 c-41 509 -154
933 -364 1367 -257 530 -609 968 -1076 1336 -356 281 -832 523 -1272 648 -352
99 -583 131 -978 136 -165 1 -320 1 -345 -1z"/>
<path d="M11717 9132 c-95 -64 -222 -178 -310 -281 -113 -130 -158 -191 -271
-364 -120 -183 -169 -221 -205 -155 -19 33 -15 52 91 372 46 142 90 258 108
285 l30 46 -53 3 c-125 8 -529 -26 -1452 -123 -341 -36 -683 -71 -760 -78
l-140 -12 3 -80 c4 -119 30 -322 63 -486 146 -734 517 -1414 1056 -1940 307
-299 610 -512 998 -700 296 -143 570 -235 884 -298 283 -57 386 -66 741 -66
355 0 458 9 741 66 733 146 1414 517 1940 1056 299 307 512 610 700 998 239
495 352 965 366 1518 l6 249 -114 -7 c-832 -47 -1452 -147 -1937 -311 -433
-146 -649 -306 -870 -644 -53 -82 -115 -177 -137 -212 -94 -147 -155 -117
-126 62 25 146 186 586 324 878 41 88 1 61 -103 -71 -191 -240 -306 -347 -375
-347 -88 0 -111 89 -59 224 4 11 -25 -9 -67 -45 -143 -124 -204 -165 -314
-210 -119 -48 -266 -27 -324 47 -32 41 -61 130 -68 210 -3 41 -9 74 -13 74 -4
0 -74 -69 -154 -154 -157 -165 -212 -205 -258 -187 -42 16 -53 39 -52 110 0
74 13 119 110 388 36 100 64 191 62 203 -3 19 -7 17 -61 -18z"/>
<path d="M13227 8971 c-66 -58 -133 -132 -174 -193 -46 -67 -86 -145 -81 -159
8 -24 368 359 368 393 0 4 -13 8 -28 8 -20 0 -46 -15 -85 -49z"/>
</g>
</svg>
