<?xml version="1.0" encoding="UTF-8" ?>
<!DOCTYPE svg PUBLIC "-//W3C//DTD SVG 1.1//EN" "http://www.w3.org/Graphics/SVG/1.1/DTD/svg11.dtd">
<svg width="558pt" height="146pt" viewBox="0 0 558 146" version="1.1" xmlns="http://www.w3.org/2000/svg">
<g id="#f36f60ff">
<path fill="#f36f60" opacity="1.00" d=" M 403.53 30.81 C 411.79 29.76 420.09 28.63 428.35 27.76 C 427.26 28.54 426.73 29.56 426.77 30.84 C 426.67 36.23 426.81 41.62 426.73 47.00 C 426.46 51.75 427.90 56.39 427.51 61.14 C 426.88 61.16 425.62 61.19 424.99 61.21 C 424.54 56.75 425.98 52.43 425.78 47.99 C 425.73 41.90 425.73 35.81 425.78 29.71 C 423.67 30.97 421.55 32.20 419.42 33.42 C 420.18 36.04 421.05 38.64 422.03 41.19 C 420.54 42.76 418.75 43.96 416.90 45.04 C 417.05 43.44 417.21 41.85 417.38 40.26 C 411.19 41.18 405.26 43.28 399.69 46.09 C 399.75 47.52 399.83 48.96 399.91 50.39 C 398.72 50.18 397.34 50.48 396.32 49.71 C 395.14 47.44 394.54 44.93 393.73 42.52 C 389.54 42.93 385.35 43.47 381.17 43.93 C 388.56 39.47 395.88 34.79 403.53 30.81 Z" />
<path fill="#f36f60" opacity="1.00" d=" M 56.02 33.08 C 57.43 31.44 59.19 30.17 60.96 28.94 C 61.07 47.30 60.94 65.67 61.02 84.03 C 60.89 87.82 63.18 91.01 65.81 93.49 C 58.47 93.24 51.12 93.58 43.79 93.28 C 42.96 82.37 43.07 71.38 42.95 60.43 C 40.04 60.43 37.13 60.43 34.23 60.43 C 34.22 59.44 34.21 58.45 34.20 57.46 C 41.42 49.29 48.79 41.24 56.02 33.08 Z" />
<path fill="#f36f60" opacity="1.00" d=" M 64.50 51.51 C 71.09 51.63 77.72 51.13 84.29 51.77 C 84.55 52.07 85.07 52.68 85.33 52.98 C 85.64 56.55 85.40 60.14 85.46 63.72 C 78.47 63.67 71.49 63.74 64.51 63.67 C 64.55 59.62 64.55 55.56 64.50 51.51 Z" />
<path fill="#f36f60" opacity="1.00" d=" M 347.50 58.26 C 352.75 58.24 358.00 58.25 363.25 58.25 C 363.25 60.81 363.25 63.38 363.21 65.94 C 365.76 62.62 368.76 59.23 372.98 58.14 C 378.09 56.76 384.26 56.92 388.38 60.65 C 392.38 64.22 393.37 69.90 393.50 75.01 C 393.51 85.93 393.50 96.84 393.49 107.75 C 387.91 107.75 382.33 107.75 376.76 107.75 C 376.75 99.16 376.74 90.57 376.77 81.98 C 376.74 79.41 376.69 76.68 375.44 74.36 C 373.57 71.61 369.08 71.48 366.93 73.96 C 364.74 76.39 364.46 79.84 364.48 82.97 C 364.51 91.23 364.50 99.49 364.50 107.75 C 358.83 107.75 353.16 107.76 347.50 107.74 C 347.50 91.25 347.50 74.75 347.50 58.26 Z" />
<path fill="#f36f60" opacity="1.00" d=" M 44.90 96.75 C 57.67 95.91 70.97 98.26 83.24 93.58 C 83.24 97.71 83.20 101.84 83.29 105.97 C 80.40 108.51 76.50 109.14 72.85 109.81 C 66.79 110.89 60.43 110.33 54.66 108.19 C 49.98 106.05 46.09 101.83 44.90 96.75 Z" />
</g>
<g id="#25bdbeff">
<path fill="#25bdbe" opacity="1.00" d=" M 141.00 39.75 C 147.25 39.75 153.50 39.75 159.75 39.75 C 159.75 56.75 159.75 73.75 159.75 90.75 C 169.33 90.75 178.91 90.75 188.50 90.75 C 188.50 96.42 188.49 102.08 188.50 107.74 C 172.67 107.76 156.84 107.74 141.00 107.75 C 141.00 85.09 141.00 62.42 141.00 39.75 Z" />
<path fill="#25bdbe" opacity="1.00" d=" M 399.69 46.09 C 405.26 43.28 411.19 41.18 417.38 40.26 C 417.21 41.85 417.05 43.44 416.90 45.04 C 416.66 47.60 416.73 50.18 416.74 52.75 C 411.18 52.75 405.61 52.73 400.04 52.77 C 400.01 52.17 399.95 50.98 399.91 50.39 C 399.83 48.96 399.75 47.52 399.69 46.09 Z" />
<path fill="#25bdbe" opacity="1.00" d=" M 329.06 58.08 C 333.13 56.39 337.56 57.88 341.29 59.74 C 339.56 64.31 337.85 68.89 336.18 73.48 C 333.99 72.86 331.66 71.34 329.36 72.42 C 326.21 73.70 325.28 77.42 324.60 80.42 C 323.16 89.46 323.95 98.64 323.75 107.75 C 318.17 107.75 312.58 107.75 307.00 107.75 C 307.00 91.25 307.00 74.75 307.00 58.25 C 312.25 58.25 317.51 58.25 322.76 58.25 C 322.75 60.69 322.73 63.13 322.67 65.57 C 324.25 62.72 325.79 59.33 329.06 58.08 Z" />
<path fill="#25bdbe" opacity="1.00" d=" M 456.43 57.62 C 461.24 56.81 466.92 56.76 470.72 60.31 C 474.89 63.89 475.90 69.72 476.00 74.94 C 476.01 85.79 475.99 96.64 476.00 107.50 C 470.88 107.49 465.77 107.52 460.66 107.48 C 462.03 100.62 463.87 93.83 466.44 87.32 C 460.49 81.96 456.50 74.75 454.55 67.02 C 454.47 71.10 454.47 75.18 454.53 79.25 C 456.30 80.32 457.44 83.40 454.98 84.42 C 454.15 84.37 452.49 84.29 451.66 84.25 C 451.24 82.21 451.57 80.32 453.46 79.19 C 453.43 74.99 453.55 70.78 453.97 66.60 C 451.61 74.38 447.45 81.60 441.23 86.92 C 443.56 93.60 445.27 100.49 446.41 107.47 C 440.94 107.52 435.47 107.49 430.00 107.50 C 430.00 91.08 429.99 74.67 430.00 58.25 C 435.25 58.25 440.50 58.25 445.75 58.25 C 445.75 60.76 445.74 63.26 445.71 65.77 C 448.41 62.14 451.79 58.54 456.43 57.62 Z" />
<path fill="#25bdbe" opacity="1.00" d=" M 199.70 64.68 C 204.16 59.47 211.19 57.27 217.88 57.36 C 224.94 57.43 232.81 58.81 237.71 64.39 C 243.01 70.86 243.93 79.67 243.77 87.75 C 232.69 87.77 221.61 87.72 210.54 87.77 C 211.07 91.43 212.38 95.59 216.21 97.00 C 220.14 98.75 224.11 96.08 226.50 93.07 C 232.04 93.59 237.58 94.14 243.11 94.79 C 240.19 100.30 235.92 105.67 229.66 107.39 C 223.01 109.14 215.87 109.31 209.18 107.74 C 200.62 105.71 195.18 97.24 193.91 88.96 C 192.67 80.60 193.77 71.13 199.70 64.68 M 213.76 70.78 C 211.64 72.78 211.10 75.74 210.51 78.46 C 215.93 78.54 221.36 78.48 226.78 78.52 C 226.26 76.13 226.07 73.53 224.63 71.48 C 222.21 68.06 216.58 67.67 213.76 70.78 Z" />
<path fill="#25bdbe" opacity="1.00" d=" M 256.94 62.01 C 261.93 57.77 268.86 57.66 275.07 57.52 C 280.58 57.85 286.55 57.57 291.43 60.56 C 296.02 63.28 297.73 68.88 298.19 73.89 C 298.38 82.25 298.14 90.61 298.27 98.98 C 298.32 102.03 299.28 104.96 300.38 107.78 C 295.00 107.72 289.63 107.76 284.26 107.75 C 283.65 105.92 283.14 104.06 282.70 102.18 C 276.90 108.98 266.68 110.52 258.51 107.70 C 248.23 103.99 247.16 86.81 257.37 82.41 C 265.25 78.87 274.21 78.65 282.00 74.81 C 281.55 72.94 281.50 70.53 279.52 69.55 C 274.91 67.78 268.75 69.43 267.52 74.75 C 262.15 74.10 256.78 73.45 251.40 72.82 C 252.33 68.87 253.65 64.67 256.94 62.01 M 269.89 89.03 C 266.88 90.43 266.19 95.02 268.79 97.15 C 272.25 99.56 277.23 97.82 279.78 94.81 C 282.17 92.06 281.71 88.23 281.81 84.87 C 277.89 86.41 273.67 87.14 269.89 89.03 Z" />
<path fill="#25bdbe" opacity="1.00" d=" M 400.00 58.25 C 405.58 58.25 411.17 58.25 416.75 58.25 C 416.75 74.75 416.75 91.25 416.75 107.75 C 411.17 107.75 405.58 107.74 400.00 107.75 C 400.00 91.25 400.00 74.75 400.00 58.25 Z" />
<path fill="#25bdbe" opacity="1.00" d=" M 487.97 60.94 C 492.75 56.96 499.75 56.44 505.46 58.53 C 508.74 59.72 510.94 62.56 513.01 65.21 C 512.99 62.89 512.99 60.57 513.00 58.25 C 518.17 58.25 523.33 58.25 528.49 58.25 C 528.51 74.84 528.49 91.43 528.51 108.02 C 528.47 115.19 524.48 122.75 517.62 125.54 C 511.73 127.78 505.27 127.74 499.06 127.32 C 493.89 126.82 488.04 125.58 484.90 121.01 C 482.06 117.48 481.81 112.79 481.96 108.47 C 487.35 109.21 492.76 109.87 498.15 110.61 C 499.22 116.00 506.95 117.23 510.13 113.13 C 512.52 108.79 511.49 103.62 511.84 98.89 C 509.06 102.23 505.42 105.18 500.91 105.51 C 494.38 106.64 487.86 102.88 484.66 97.26 C 480.82 90.89 480.32 83.08 481.02 75.85 C 481.55 70.32 483.55 64.56 487.97 60.94 M 502.44 71.44 C 500.08 72.29 498.48 74.57 498.03 76.98 C 497.22 80.97 497.05 85.39 498.88 89.14 C 500.29 92.00 503.96 93.28 506.91 92.19 C 509.65 90.90 511.30 87.98 511.60 85.04 C 512.03 81.20 511.95 76.85 509.35 73.73 C 507.76 71.66 504.94 70.68 502.44 71.44 Z" />
<path fill="#25bdbe" opacity="1.00" d=" M 100.75 83.25 C 109.25 83.25 117.75 83.25 126.25 83.25 C 126.25 86.33 126.25 89.41 126.25 92.50 C 117.75 92.50 109.25 92.50 100.75 92.50 C 100.75 89.41 100.75 86.33 100.75 83.25 Z" />
</g>
</svg>
