<?xml version="1.0" encoding="UTF-8" ?>
<!DOCTYPE svg PUBLIC "-//W3C//DTD SVG 1.1//EN" "http://www.w3.org/Graphics/SVG/1.1/DTD/svg11.dtd">
<svg width="300pt" height="300pt" viewBox="0 0 300 300" version="1.1" xmlns="http://www.w3.org/2000/svg">
<g id="#f36f60ff">
<path fill="#f36f60" opacity="1.00" d=" M 7.23 29.91 C 7.39 19.07 15.65 9.35 26.19 7.13 C 28.71 6.20 31.45 6.67 34.07 6.58 C 109.05 6.59 184.03 6.58 259.01 6.59 C 263.65 6.63 268.30 6.47 272.95 6.71 C 278.56 8.05 283.91 10.89 287.57 15.45 C 291.43 20.00 293.10 26.09 292.92 31.98 C 292.92 111.34 292.97 190.70 292.90 270.05 C 293.01 281.29 284.05 291.14 273.25 293.31 C 193.52 293.58 113.76 293.29 34.02 293.46 C 29.03 293.85 23.90 293.02 19.56 290.45 C 12.07 286.52 7.47 278.36 7.26 270.01 C 7.25 189.97 7.29 109.94 7.23 29.91 M 153.26 34.39 C 129.67 60.19 106.85 86.69 83.27 112.51 C 83.29 116.16 83.33 119.82 83.29 123.48 C 91.23 123.56 99.17 123.49 107.11 123.52 C 107.29 154.86 106.89 186.20 106.58 217.54 C 128.74 217.58 150.89 217.48 173.05 217.58 C 174.38 217.56 175.70 217.42 177.00 217.16 C 174.49 215.14 171.13 214.54 168.75 212.30 C 163.00 207.69 160.04 200.37 160.15 193.08 C 160.06 140.16 160.41 87.24 160.01 34.33 C 157.76 34.39 155.51 34.42 153.26 34.39 M 169.26 96.32 C 169.21 108.47 169.47 120.63 169.17 132.78 C 185.36 132.83 201.54 132.78 217.73 132.80 C 217.60 120.65 217.61 108.49 217.72 96.34 C 201.57 96.31 185.41 96.35 169.26 96.32 M 168.99 225.62 C 148.32 226.80 127.62 226.38 106.94 226.56 C 110.03 236.45 115.41 245.76 123.57 252.33 C 138.24 264.66 158.52 267.31 177.04 265.86 C 191.14 265.10 204.80 260.94 217.80 255.63 C 217.64 242.77 217.67 229.92 217.75 217.06 C 202.65 224.54 185.45 224.77 168.99 225.62 Z" />
</g>
<g id="#ffffffff">
<path fill="#ffffff" opacity="1.00" d=" M 153.26 34.39 C 155.51 34.42 157.76 34.39 160.01 34.33 C 160.41 87.24 160.06 140.16 160.15 193.08 C 160.04 200.37 163.00 207.69 168.75 212.30 C 171.13 214.54 174.49 215.14 177.00 217.16 C 175.70 217.42 174.38 217.56 173.05 217.58 C 150.89 217.48 128.74 217.58 106.58 217.54 C 106.89 186.20 107.29 154.86 107.11 123.52 C 99.17 123.49 91.23 123.56 83.29 123.48 C 83.33 119.82 83.29 116.16 83.27 112.51 C 106.85 86.69 129.67 60.19 153.26 34.39 Z" />
<path fill="#ffffff" opacity="1.00" d=" M 169.26 96.32 C 185.41 96.35 201.57 96.31 217.72 96.34 C 217.61 108.49 217.60 120.65 217.73 132.80 C 201.54 132.78 185.36 132.83 169.17 132.78 C 169.47 120.63 169.21 108.47 169.26 96.32 Z" />
<path fill="#ffffff" opacity="1.00" d=" M 168.99 225.62 C 185.45 224.77 202.65 224.54 217.75 217.06 C 217.67 229.92 217.64 242.77 217.80 255.63 C 204.80 260.94 191.14 265.10 177.04 265.86 C 158.52 267.31 138.24 264.66 123.57 252.33 C 115.41 245.76 110.03 236.45 106.94 226.56 C 127.62 226.38 148.32 226.80 168.99 225.62 Z" />
</g>
</svg>
